# Apple ModelIO OBJ File: Cat_1_Munchkin
mtllib Cat_1_Munchkin.mtl
g Cat_Head2_initialShadingGroup
v -0.599805 0.889938 1.7954
v -0.199935 0.889938 1.7954
v -0.199935 2.08955 1.7954
v -0.599805 2.08955 1.7954
v 0.199935 0.889938 1.7954
v 0.199935 2.08955 1.7954
v 0.599805 0.889938 1.7954
v 0.599805 2.08955 1.7954
v -0.102489 2.08955 0.938798
v -0.599805 2.08955 0.938798
v 0.102489 2.08955 0.938798
v 0.599805 2.08955 0.938798
v -0.423074 2.4117 0.935189
v -0.29867 2.4117 0.935189
v -0.29867 2.4117 0.830786
v -0.423074 2.4117 0.830786
v 0.102489 2.08955 0.595786
v -0.102489 2.08955 0.595786
v 0.29867 2.4117 0.935189
v 0.423074 2.4117 0.935189
v 0.423074 2.4117 0.830786
v 0.29867 2.4117 0.830786
v -0.599805 2.08955 0.595786
v -0.199935 0.889938 0.595786
v -0.599805 0.889938 0.595786
v 0.199935 0.889938 0.595786
v 0.599805 2.08955 0.595786
v 0.599805 0.889938 0.595786
v -0.199935 0.889938 0.938798
v -0.599805 0.889938 0.938798
v 0.199935 0.889938 0.938798
v 0.599805 0.889938 0.938798
vn 0 0 1
vn 0 1 0
vn 0 0.087373 -0.996176
vn 0 0.053708 -0.998557
vn 0 0 -1
vn 0 -1 0
vn 1 0 0
vn 0.998484 0.055037 0
vn 0.999662 0.025999 0
vn -1 0 0
vn -0.999662 0.025999 0
vn -0.998484 0.055037 0
vn 0 0.011202 0.999937
vn 0.854092 0.520123 0
vn 0 0.589336 -0.807888
vn -0.876733 0.480977 0
vn 0.876733 0.480977 0
vn -0.854092 0.520123 0
vt 0.882659 0.36024
vt 0.830357 0.36024
vt 0.830357 0.216605
vt 0.882659 0.216605
vt 0.78959 0.36024
vt 0.78959 0.216605
vt 0.738143 0.36024
vt 0.738143 0.216605
vt 0.407028 0.404491
vt 0.355654 0.404491
vt 0.355654 0.294591
vt 0.407028 0.294591
vt 0.315612 0.404491
vt 0.315612 0.294591
vt 0.265078 0.404491
vt 0.265078 0.294591
vt 0.328753 0.932652
vt 0.301762 0.934038
vt 0.300599 0.911386
vt 0.32759 0.91
vt 0.315612 0.251153
vt 0.355654 0.251153
vt 0.52832 0.964802
vt 0.502468 0.964928
vt 0.502362 0.943232
vt 0.528215 0.943106
vt 0.407028 0.251153
vt 0.355654 0.110256
vt 0.407028 0.110256
vt 0.315612 0.110256
vt 0.265078 0.251153
vt 0.265078 0.110256
vt 0.882659 0.503969
vt 0.830357 0.503969
vt 0.830357 0.462874
vt 0.882659 0.462874
vt 0.78959 0.503969
vt 0.78959 0.462874
vt 0.738143 0.50397
vt 0.738143 0.462874
vt 0.339751 0.520872
vt 0.389385 0.520872
vt 0.389385 0.694457
vt 0.339751 0.694457
vt 0.2158 0.520872
vt 0.2158 0.694457
vt 0.911728 0.627221
vt 0.862094 0.627221
vt 0.862094 0.800806
vt 0.911728 0.800806
vt 0.738143 0.627221
vt 0.738143 0.800806
vt 0.802204 0.003906
vt 0.973646 0.003906
vt 0.906016 0.17874
vt 0.863129 0.17874
vt 0.201017 0.845022
vt 0.251709 0.790401
vt 0.285169 0.928011
vt 0.359609 0.78486
vt 0.416894 0.83252
vt 0.345026 0.924507
vt 0.738143 0.805734
vt 0.909585 0.805734
vt 0.84866 0.980568
vt 0.805774 0.980568
vt 0.412911 0.874032
vt 0.465061 0.825437
vt 0.486489 0.958023
vt 0.568408 0.824933
vt 0.619755 0.874376
vt 0.543843 0.958155
usemtl initialShadingGroup
f 1/1/1 2/2/1 3/3/1
f 1/1/1 3/3/1 4/4/1
f 2/2/1 5/5/1 6/6/1
f 2/2/1 6/6/1 3/3/1
f 5/5/1 7/7/1 8/8/1
f 5/5/1 8/8/1 6/6/1
f 4/9/2 3/10/2 9/11/2
f 4/9/2 9/11/2 10/12/2
f 3/10/2 6/13/2 11/14/2
f 3/10/2 11/14/2 9/11/2
f 6/13/2 8/15/2 12/16/2
f 6/13/2 12/16/2 11/14/2
f 13/17/2 14/18/2 15/19/2
f 13/17/2 15/19/2 16/20/2
f 9/11/2 11/14/2 17/21/2
f 9/11/2 17/21/2 18/22/2
f 19/23/2 20/24/2 21/25/2
f 19/23/2 21/25/2 22/26/2
f 23/27/3 18/22/4 24/28/5
f 23/27/3 24/28/5 25/29/5
f 18/22/4 17/21/4 26/30/5
f 18/22/4 26/30/5 24/28/5
f 17/21/4 27/31/3 28/32/5
f 17/21/4 28/32/5 26/30/5
f 25/33/6 24/34/6 29/35/6
f 25/33/6 29/35/6 30/36/6
f 24/34/6 26/37/6 31/38/6
f 24/34/6 31/38/6 29/35/6
f 26/37/6 28/39/6 32/40/6
f 26/37/6 32/40/6 31/38/6
f 30/36/6 29/35/6 2/2/6
f 30/36/6 2/2/6 1/1/6
f 29/35/6 31/38/6 5/5/6
f 29/35/6 5/5/6 2/2/6
f 31/38/6 32/40/6 7/7/6
f 31/38/6 7/7/6 5/5/6
f 32/41/7 28/42/7 27/43/8
f 32/41/7 27/43/8 12/44/9
f 7/45/7 32/41/7 12/44/9
f 7/45/7 12/44/9 8/46/7
f 25/47/10 30/48/10 10/49/11
f 25/47/10 10/49/11 23/50/12
f 30/48/10 1/51/10 4/52/10
f 30/48/10 4/52/10 10/49/11
f 10/53/13 9/54/13 14/55/13
f 10/53/13 14/55/13 13/56/13
f 9/57/14 18/58/14 15/19/14
f 9/57/14 15/19/14 14/59/14
f 18/58/4 23/60/3 16/20/15
f 18/58/4 16/20/15 15/19/15
f 23/60/12 10/61/11 13/62/16
f 23/60/12 13/62/16 16/20/16
f 11/63/13 12/64/13 20/65/13
f 11/63/13 20/65/13 19/66/13
f 12/67/9 27/68/8 21/25/17
f 12/67/9 21/25/17 20/69/17
f 27/68/3 17/70/4 22/26/15
f 27/68/3 22/26/15 21/25/15
f 17/70/18 11/71/18 19/72/18
f 17/70/18 19/72/18 22/26/18
s off
g Cat_1_Munchkin_initialShadingGroup
v -0.5 0.351766 1.04811
v 0.5 0.351766 1.04811
v 0.5 1.35177 1.04811
v -0.5 1.35177 1.04811
v 0.5 1.35177 -1.04811
v -0.5 1.35177 -1.04811
v 0.5 0.351766 -1.04811
v -0.5 0.351766 -1.04811
vn 0 0 1
vn 0 1 0
vn 0 0 -1
vn 0 -1 0
vn 1 0 0
vn -1 0 0
vt 0.105328 0.414522
vt 0.206751 0.414522
vt 0.206751 0.515944
vt 0.105328 0.515944
vt 0.206751 0.617367
vt 0.105328 0.617367
vt 0.206751 0.718789
vt 0.105328 0.718789
vt 0.206751 0.820211
vt 0.105328 0.820211
vt 0.308173 0.414522
vt 0.308173 0.515944
vt 0.003906 0.414522
vt 0.003906 0.515944
usemtl initialShadingGroup
f 33/73/19 34/74/19 35/75/19
f 33/73/19 35/75/19 36/76/19
f 36/76/20 35/75/20 37/77/20
f 36/76/20 37/77/20 38/78/20
f 38/78/21 37/77/21 39/79/21
f 38/78/21 39/79/21 40/80/21
f 40/80/22 39/79/22 34/81/22
f 40/80/22 34/81/22 33/82/22
f 34/74/23 39/83/23 37/84/23
f 34/74/23 37/84/23 35/75/23
f 40/85/24 33/73/24 36/76/24
f 40/85/24 36/76/24 38/86/24
s off
g Cat_1_Munchkin_initialShadingGroup_1
v -0.137238 1.3214 -0.832759
v 0.137238 1.3214 -0.832759
v 0.144236 1.54101 -0.848385
v -0.144236 1.54101 -0.848385
v -0.152278 1.8238 -0.911378
v 0.152278 1.8238 -0.911378
v 0.166377 2.10923 -1.02777
v -0.166377 2.10923 -1.02777
v -0.180477 2.45142 -0.999425
v 0.180477 2.45142 -0.999425
v 0.190504 2.82997 -0.803125
v -0.190504 2.82997 -0.803125
v -0.134373 2.99708 -0.800418
v 0.134373 2.99708 -0.800418
v 0.134373 3.08974 -1.05964
v -0.134373 3.08974 -1.05964
v -0.190504 2.93415 -1.17924
v 0.190504 2.93415 -1.17924
v 0.180477 2.52814 -1.31631
v -0.180477 2.52814 -1.31631
v -0.166377 2.08866 -1.31886
v 0.166377 2.08866 -1.31886
v 0.152278 1.72694 -1.15447
v -0.152278 1.72694 -1.15447
v -0.144236 1.47794 -1.07497
v 0.144236 1.47794 -1.07497
v 0.137238 1.20344 -1.02881
v -0.137238 1.20344 -1.02881
vn 0 0.070974 0.997478
vn 0 0.162406 0.986724
vn 0 0.309188 0.951001
vn 0 0.10638 0.994326
vn 0 -0.319385 0.947625
vn 0 -0.419457 0.907775
vn 0 0.941646 0.336604
vn 0 0.391174 -0.920317
vn 0 0.180724 -0.983534
vn 0 -0.172272 -0.985049
vn 0 -0.375433 -0.92685
vn 0 -0.239427 -0.970914
vn 0 -0.16585 -0.986151
vn 0 -0.856856 0.515556
vn 0.999572 -0.026875 0.011512
vn 0.999573 -0.026875 0.011512
vn 0.999572 -0.027523 0.009884
vn 0.999573 -0.027146 0.010831
vn 0.999493 -0.030444 0.009275
vn 0.999236 -0.038084 0.008834
vn 0.99933 -0.036584 -0.001233
vn 0.999277 -0.0379 0.002914
vn 0.99964 -0.026301 -0.005318
vn 0.99948 -0.031969 -0.00414
vn 0.999999 0.000154 0.001093
vn 0.98274 0.17658 0.055145
vn -0.999572 -0.026875 0.011512
vn -0.999572 -0.027523 0.009884
vn -0.999573 -0.027146 0.010831
vn -0.999236 -0.038084 0.008834
vn -0.999493 -0.030444 0.009275
vn -0.99933 -0.036584 -0.001233
vn -0.999277 -0.0379 0.002914
vn -0.99948 -0.031969 -0.00414
vn -0.99964 -0.026301 -0.005318
vn -0.999999 0.000154 0.001093
vn -0.98274 0.17658 0.055145
vn 0 -0.016196 0.999869
vn 0.950775 0.296 0.091711
vn 0 0.609453 -0.792822
vn -0.950775 0.296 0.091711
vt 0.627671 0.520872
vt 0.729093 0.520872
vt 0.729093 0.536603
vt 0.627671 0.536603
vt 0.627671 0.554679
vt 0.729093 0.554679
vt 0.729093 0.571583
vt 0.627671 0.571583
vt 0.627671 0.588487
vt 0.729093 0.588487
vt 0.729093 0.622294
vt 0.627671 0.622294
vt 0.729093 0.723716
vt 0.627671 0.723716
vt 0.729093 0.757523
vt 0.627671 0.757523
vt 0.627671 0.774427
vt 0.729093 0.774427
vt 0.729093 0.791331
vt 0.627671 0.791331
vt 0.627671 0.809407
vt 0.729093 0.809407
vt 0.729093 0.825138
vt 0.627671 0.825138
vt 0.729093 0.92656
vt 0.627671 0.92656
vt 0.830516 0.520872
vt 0.830516 0.536603
vt 0.830516 0.554679
vt 0.830516 0.571583
vt 0.830516 0.588487
vt 0.830516 0.622294
vt 0.526249 0.520872
vt 0.526249 0.536603
vt 0.526249 0.554679
vt 0.526249 0.571583
vt 0.526249 0.588487
vt 0.526249 0.622294
usemtl initialShadingGroup
f 41/87/25 42/88/25 43/89/26
f 41/87/25 43/89/26 44/90/26
f 45/91/27 46/92/27 47/93/28
f 45/91/27 47/93/28 48/94/28
f 49/95/29 50/96/29 51/97/30
f 49/95/29 51/97/30 52/98/30
f 53/98/31 54/97/31 55/99/31
f 53/98/31 55/99/31 56/100/31
f 57/100/32 58/99/32 59/101/33
f 57/100/32 59/101/33 60/102/33
f 61/103/34 62/104/34 63/105/35
f 61/103/34 63/105/35 64/106/35
f 65/107/36 66/108/36 67/109/37
f 65/107/36 67/109/37 68/110/37
f 68/110/38 67/109/38 42/111/38
f 68/110/38 42/111/38 41/112/38
f 42/88/39 67/113/40 66/114/41
f 42/88/39 66/114/41 43/89/42
f 46/92/43 63/115/44 62/116/45
f 46/92/43 62/116/45 47/93/46
f 50/96/47 59/117/48 58/118/49
f 50/96/47 58/118/49 51/97/50
f 68/119/51 41/87/51 65/120/52
f 41/87/51 44/90/53 65/120/52
f 64/121/54 45/91/55 61/122/56
f 45/91/55 48/94/57 61/122/56
f 60/123/58 49/95/59 57/124/60
f 49/95/59 52/98/61 57/124/60
f 52/98/30 51/97/30 54/97/62
f 52/98/30 54/97/62 53/98/62
f 51/97/50 58/99/49 54/97/63
f 58/99/49 55/99/63 54/97/63
f 58/99/32 57/100/32 56/100/64
f 58/99/32 56/100/64 55/99/64
f 57/100/60 52/98/61 53/98/65
f 57/100/60 53/98/65 56/100/65
f 65/120/52 44/90/53 45/91/55
f 65/120/52 45/91/55 64/121/54
f 64/106/35 63/105/35 66/108/36
f 64/106/35 66/108/36 65/107/36
f 43/89/42 66/114/41 46/92/43
f 66/114/41 63/115/44 46/92/43
f 44/90/26 43/89/26 46/92/27
f 44/90/26 46/92/27 45/91/27
f 61/122/56 48/94/57 60/123/58
f 48/94/57 49/95/59 60/123/58
f 60/102/33 59/101/33 62/104/34
f 60/102/33 62/104/34 61/103/34
f 47/93/46 62/116/45 59/117/48
f 47/93/46 59/117/48 50/96/47
f 48/94/28 47/93/28 50/96/29
f 48/94/28 50/96/29 49/95/29
s off
g Cat_1_Munchkin_initialShadingGroup_2
v -0.477596 0.002976 0.964815
v -0.143964 0.002976 0.964815
v -0.143964 0.351766 0.964815
v -0.477596 0.351766 0.964815
v -0.143964 0.351766 0.631182
v -0.477596 0.351766 0.631182
v -0.143964 0.002976 0.631182
v -0.477596 0.002976 0.631182
vn 0 0 1
vn 0 1 0
vn 0 0 -1
vn 0 -1 0
vn 1 0 0
vn -1 0 0
vt 0.415777 0.003906
vt 0.5172 0.003906
vt 0.5172 0.105328
vt 0.415777 0.105328
vt 0.5172 0.206751
vt 0.415777 0.206751
vt 0.5172 0.308173
vt 0.415777 0.308173
vt 0.5172 0.409595
vt 0.415777 0.409595
vt 0.618622 0.003906
vt 0.618622 0.105328
vt 0.314355 0.003906
vt 0.314355 0.105328
usemtl initialShadingGroup
f 69/125/66 70/126/66 71/127/66
f 69/125/66 71/127/66 72/128/66
f 72/128/67 71/127/67 73/129/67
f 72/128/67 73/129/67 74/130/67
f 74/130/68 73/129/68 75/131/68
f 74/130/68 75/131/68 76/132/68
f 76/132/69 75/131/69 70/133/69
f 76/132/69 70/133/69 69/134/69
f 70/126/70 75/135/70 73/136/70
f 70/126/70 73/136/70 71/127/70
f 76/137/71 69/125/71 72/128/71
f 76/137/71 72/128/71 74/138/71
s off
g Cat_1_Munchkin_initialShadingGroup_3
v 0.144184 0.002976 0.964815
v 0.477816 0.002976 0.964815
v 0.477816 0.351766 0.964815
v 0.144184 0.351766 0.964815
v 0.477816 0.351766 0.631182
v 0.144184 0.351766 0.631182
v 0.477816 0.002976 0.631182
v 0.144184 0.002976 0.631182
vn 0 0 1
vn 0 1 0
vn 0 0 -1
vn 0 -1 0
vn 1 0 0
vn -1 0 0
vt 0.627671 0.110256
vt 0.729093 0.110256
vt 0.729093 0.211678
vt 0.627671 0.211678
vt 0.729093 0.3131
vt 0.627671 0.3131
vt 0.729093 0.414522
vt 0.627671 0.414522
vt 0.729093 0.515944
vt 0.627671 0.515944
vt 0.830516 0.110256
vt 0.830516 0.211678
vt 0.526249 0.110256
vt 0.526249 0.211678
usemtl initialShadingGroup
f 77/139/72 78/140/72 79/141/72
f 77/139/72 79/141/72 80/142/72
f 80/142/73 79/141/73 81/143/73
f 80/142/73 81/143/73 82/144/73
f 82/144/74 81/143/74 83/145/74
f 82/144/74 83/145/74 84/146/74
f 84/146/75 83/145/75 78/147/75
f 84/146/75 78/147/75 77/148/75
f 78/140/76 83/149/76 81/150/76
f 78/140/76 81/150/76 79/141/76
f 84/151/77 77/139/77 80/142/77
f 84/151/77 80/142/77 82/152/77
s off
g Cat_1_Munchkin_initialShadingGroup_4
v -0.477596 0.002976 -0.631184
v -0.143964 0.002976 -0.631184
v -0.143964 0.351766 -0.631184
v -0.477596 0.351766 -0.631184
v -0.143964 0.351766 -0.964816
v -0.477596 0.351766 -0.964816
v -0.143964 0.002976 -0.964816
v -0.477596 0.002976 -0.964816
vn 0 0 1
vn 0 1 0
vn 0 0 -1
vn 0 -1 0
vn 1 0 0
vn -1 0 0
vt 0.105328 0.003906
vt 0.206751 0.003906
vt 0.206751 0.105328
vt 0.105328 0.105328
vt 0.206751 0.206751
vt 0.105328 0.206751
vt 0.206751 0.308173
vt 0.105328 0.308173
vt 0.206751 0.409595
vt 0.105328 0.409595
vt 0.308173 0.003906
vt 0.308173 0.105328
vt 0.003906 0.003906
vt 0.003906 0.105328
usemtl initialShadingGroup
f 85/153/78 86/154/78 87/155/78
f 85/153/78 87/155/78 88/156/78
f 88/156/79 87/155/79 89/157/79
f 88/156/79 89/157/79 90/158/79
f 90/158/80 89/157/80 91/159/80
f 90/158/80 91/159/80 92/160/80
f 92/160/81 91/159/81 86/161/81
f 92/160/81 86/161/81 85/162/81
f 86/154/82 91/163/82 89/164/82
f 86/154/82 89/164/82 87/155/82
f 92/165/83 85/153/83 88/156/83
f 92/165/83 88/156/83 90/166/83
s off
g Cat_1_Munchkin_initialShadingGroup_5
v 0.144184 0.002976 -0.631184
v 0.477816 0.002976 -0.631184
v 0.477816 0.351766 -0.631184
v 0.144184 0.351766 -0.631184
v 0.477816 0.351766 -0.964816
v 0.144184 0.351766 -0.964816
v 0.477816 0.002976 -0.964816
v 0.144184 0.002976 -0.964816
vn 0 0 1
vn 0 1 0
vn 0 0 -1
vn 0 -1 0
vn 1 0 0
vn -1 0 0
vt 0.415777 0.414522
vt 0.5172 0.414522
vt 0.5172 0.515944
vt 0.415777 0.515944
vt 0.5172 0.617367
vt 0.415777 0.617367
vt 0.5172 0.718789
vt 0.415777 0.718789
vt 0.5172 0.820211
vt 0.415777 0.820211
vt 0.618622 0.414522
vt 0.618622 0.515944
vt 0.314355 0.414522
vt 0.314355 0.515944
usemtl initialShadingGroup
f 93/167/84 94/168/84 95/169/84
f 93/167/84 95/169/84 96/170/84
f 96/170/85 95/169/85 97/171/85
f 96/170/85 97/171/85 98/172/85
f 98/172/86 97/171/86 99/173/86
f 98/172/86 99/173/86 100/174/86
f 100/174/87 99/173/87 94/175/87
f 100/174/87 94/175/87 93/176/87
f 94/168/88 99/177/88 97/178/88
f 94/168/88 97/178/88 95/169/88
f 100/179/89 93/167/89 96/170/89
f 100/179/89 96/170/89 98/180/89
s off
