# Apple ModelIO OBJ File: Cat_2_Bengal
mtllib Cat_2_Bengal.mtl
g Cat_Body_initialShadingGroup
v -0.5 0.934175 1.04811
v 0.5 0.934175 1.04811
v 0.5 1.93418 1.04811
v -0.5 1.93418 1.04811
v 0.5 1.93418 -1.04811
v -0.5 1.93418 -1.04811
v 0.5 0.934175 -1.04811
v -0.5 0.934175 -1.04811
vn 0 0 1
vn 0 1 0
vn 0 0 -1
vn 0 -1 0
vn 1 0 0
vn -1 0 0
vt 0.319835 0.003906
vt 0.420972 0.003906
vt 0.420972 0.105044
vt 0.319835 0.105044
vt 0.420972 0.206181
vt 0.319835 0.206181
vt 0.420972 0.307318
vt 0.319835 0.307318
vt 0.420972 0.408455
vt 0.319835 0.408455
vt 0.522109 0.003906
vt 0.522109 0.105044
vt 0.218697 0.003906
vt 0.218697 0.105044
usemtl initialShadingGroup
f 1/1/1 2/2/1 3/3/1
f 1/1/1 3/3/1 4/4/1
f 4/4/2 3/3/2 5/5/2
f 4/4/2 5/5/2 6/6/2
f 6/6/3 5/5/3 7/7/3
f 6/6/3 7/7/3 8/8/3
f 8/8/4 7/7/4 2/9/4
f 8/8/4 2/9/4 1/10/4
f 2/2/5 7/11/5 5/12/5
f 2/2/5 5/12/5 3/3/5
f 8/13/6 1/1/6 4/4/6
f 8/13/6 4/4/6 6/14/6
s off
g Cat_2_Bengal_initialShadingGroup
v -0.457827 1.80734 1.66793
v -0.152609 1.80734 1.66793
v -0.152609 2.72299 1.66793
v -0.457827 2.72299 1.66793
v 0.152609 1.80734 1.66793
v 0.152609 2.72299 1.66793
v 0.457827 1.80734 1.66793
v 0.457827 2.72299 1.66793
v -0.078229 2.72299 1.0141
v -0.457827 2.72299 1.0141
v 0.078229 2.72299 1.0141
v 0.457827 2.72299 1.0141
v -0.322929 3.1101 1.02669
v -0.227973 3.1101 1.02669
v -0.227973 3.1101 0.947
v -0.322929 3.1101 0.947
v 0.078229 2.72299 0.752278
v -0.078229 2.72299 0.752278
v 0.227973 3.1101 1.02669
v 0.322929 3.1101 1.02669
v 0.322929 3.1101 0.947
v 0.227973 3.1101 0.947
v -0.457827 2.72299 0.752278
v -0.152609 1.80734 0.752278
v -0.457827 1.80734 0.752278
v 0.152609 1.80734 0.752278
v 0.457827 2.72299 0.752278
v 0.457827 1.80734 0.752278
v -0.152609 1.80734 1.0141
v -0.457827 1.80734 1.0141
v 0.152609 1.80734 1.0141
v 0.457827 1.80734 1.0141
vn 0 0 1
vn 0 1 0
vn 0 0.095825 -0.995398
vn 0 0.061397 -0.998113
vn 0 0 -1
vn 0 -1 0
vn 1 0 0
vn 0.998347 0.057471 0
vn 0.999664 0.025918 0
vn -1 0 0
vn -0.999664 0.025918 0
vn -0.998347 0.057471 0
vn 0 -0.032518 0.999471
vn 0.932653 0.360775 0
vn 0 0.449371 -0.893345
vn -0.944306 0.329068 0
vn 0.944306 0.329068 0
vn -0.932653 0.360775 0
vt 0.89634 0.158269
vt 0.840131 0.158269
vt 0.840131 0.003906
vt 0.89634 0.003906
vt 0.79632 0.158269
vt 0.79632 0.003906
vt 0.74103 0.158269
vt 0.74103 0.003906
vt 0.694636 0.923835
vt 0.642524 0.923835
vt 0.642524 0.812357
vt 0.694636 0.812357
vt 0.601907 0.923835
vt 0.601907 0.812357
vt 0.550647 0.923835
vt 0.550647 0.812357
vt 0.292115 0.947474
vt 0.267318 0.948748
vt 0.26625 0.927937
vt 0.291047 0.926664
vt 0.601907 0.768294
vt 0.642524 0.768294
vt 0.109935 0.983357
vt 0.086184 0.983473
vt 0.086086 0.96354
vt 0.109837 0.963424
vt 0.694636 0.768294
vt 0.642524 0.625374
vt 0.694636 0.625374
vt 0.601907 0.625374
vt 0.550647 0.768294
vt 0.550647 0.625374
vt 0.89634 0.312732
vt 0.840131 0.312732
vt 0.840131 0.268568
vt 0.89634 0.268568
vt 0.79632 0.312732
vt 0.79632 0.268568
vt 0.74103 0.312732
vt 0.74103 0.268568
vt 0.343378 0.625374
vt 0.395259 0.625374
vt 0.395259 0.806817
vt 0.343378 0.806817
vt 0.213816 0.625374
vt 0.213816 0.806817
vt 0.81996 0.317614
vt 0.768078 0.317614
vt 0.768078 0.499057
vt 0.81996 0.499057
vt 0.638516 0.317614
vt 0.638516 0.499057
vt 0.828899 0.317614
vt 0.966774 0.317614
vt 0.912385 0.458215
vt 0.877896 0.458215
vt 0.174763 0.866968
vt 0.221334 0.816787
vt 0.252075 0.943211
vt 0.320463 0.811696
vt 0.373091 0.855482
vt 0.307065 0.939991
vt 0.838662 0.625374
vt 0.976537 0.625374
vt 0.92754 0.765976
vt 0.893051 0.765976
vt 0.003906 0.899966
vt 0.051817 0.855321
vt 0.071504 0.977129
vt 0.146763 0.854858
vt 0.193937 0.900282
vt 0.124196 0.97725
usemtl initialShadingGroup
f 9/15/7 10/16/7 11/17/7
f 9/15/7 11/17/7 12/18/7
f 10/16/7 13/19/7 14/20/7
f 10/16/7 14/20/7 11/17/7
f 13/19/7 15/21/7 16/22/7
f 13/19/7 16/22/7 14/20/7
f 12/23/8 11/24/8 17/25/8
f 12/23/8 17/25/8 18/26/8
f 11/24/8 14/27/8 19/28/8
f 11/24/8 19/28/8 17/25/8
f 14/27/8 16/29/8 20/30/8
f 14/27/8 20/30/8 19/28/8
f 21/31/8 22/32/8 23/33/8
f 21/31/8 23/33/8 24/34/8
f 17/25/8 19/28/8 25/35/8
f 17/25/8 25/35/8 26/36/8
f 27/37/8 28/38/8 29/39/8
f 27/37/8 29/39/8 30/40/8
f 31/41/9 26/36/10 32/42/11
f 31/41/9 32/42/11 33/43/11
f 26/36/10 25/35/10 34/44/11
f 26/36/10 34/44/11 32/42/11
f 25/35/10 35/45/9 36/46/11
f 25/35/10 36/46/11 34/44/11
f 33/47/12 32/48/12 37/49/12
f 33/47/12 37/49/12 38/50/12
f 32/48/12 34/51/12 39/52/12
f 32/48/12 39/52/12 37/49/12
f 34/51/12 36/53/12 40/54/12
f 34/51/12 40/54/12 39/52/12
f 38/50/12 37/49/12 10/16/12
f 38/50/12 10/16/12 9/15/12
f 37/49/12 39/52/12 13/19/12
f 37/49/12 13/19/12 10/16/12
f 39/52/12 40/54/12 15/21/12
f 39/52/12 15/21/12 13/19/12
f 40/55/13 36/56/13 35/57/14
f 40/55/13 35/57/14 20/58/15
f 15/59/13 40/55/13 20/58/15
f 15/59/13 20/58/15 16/60/13
f 33/61/16 38/62/16 18/63/17
f 33/61/16 18/63/17 31/64/18
f 38/62/16 9/65/16 12/66/16
f 38/62/16 12/66/16 18/63/17
f 18/67/19 17/68/19 22/69/19
f 18/67/19 22/69/19 21/70/19
f 17/71/20 26/72/20 23/33/20
f 17/71/20 23/33/20 22/73/20
f 26/72/10 31/74/9 24/34/21
f 26/72/10 24/34/21 23/33/21
f 31/74/18 18/75/17 21/76/22
f 31/74/18 21/76/22 24/34/22
f 19/77/19 20/78/19 28/79/19
f 19/77/19 28/79/19 27/80/19
f 20/81/15 35/82/14 29/39/23
f 20/81/15 29/39/23 28/83/23
f 35/82/9 25/84/10 30/40/21
f 35/82/9 30/40/21 29/39/21
f 25/84/24 19/85/24 27/86/24
f 25/84/24 27/86/24 30/40/24
s off
g Cat_2_Bengal_initialShadingGroup_1
v -0.107912 1.90381 -0.845566
v 0.107912 1.90381 -0.845566
v 0.113415 2.15496 -0.821102
v -0.113415 2.15496 -0.821102
v -0.119738 2.51921 -0.817033
v 0.119738 2.51921 -0.817033
v 0.130825 2.86731 -0.853393
v -0.130825 2.86731 -0.853393
v -0.132158 3.19487 -0.791577
v 0.132158 3.19487 -0.791577
v 0.117628 3.33538 -0.698826
v -0.117628 3.33538 -0.698826
v -0.082969 3.43678 -0.594374
v 0.082969 3.43678 -0.594374
v 0.082969 3.59311 -0.654954
v -0.082969 3.59311 -0.654954
v -0.117628 3.59584 -0.848129
v 0.117628 3.59584 -0.848129
v 0.132158 3.34105 -1.01719
v -0.132158 3.34105 -1.01719
v -0.130825 2.87137 -1.08959
v 0.130825 2.87137 -1.08959
v 0.119738 2.45392 -1.01821
v -0.119738 2.45392 -1.01821
v -0.113415 2.12599 -1.00505
v 0.113415 2.12599 -1.00505
v 0.107912 1.76366 -1.01138
v -0.107912 1.76366 -1.01138
vn 0 -0.096946 0.99529
vn 0 -0.042409 0.9991
vn 0 0.052152 0.998639
vn 0 -0.049874 0.998756
vn 0 -0.301802 0.953371
vn 0 -0.610059 0.792356
vn 0 0.361346 0.932432
vn 0 0.764258 -0.644911
vn 0 0.306586 -0.951843
vn 0 0.011606 -0.999933
vn 0 -0.119394 -0.992847
vn 0 -0.012505 -0.999922
vn 0 0.017468 -0.999847
vn 0 -0.763738 0.645526
vn 0.999792 -0.018382 0.008889
vn 0.999813 -0.018283 0.006353
vn 0.999816 -0.018265 0.005889
vn 0.999723 -0.023141 0.004224
vn 0.999675 -0.025142 0.004129
vn 0.999893 -0.014572 0.001232
vn 0.999899 -0.014176 0.001153
vn 0.9991 0.02838 0.031533
vn 0.999993 0.001243 0.003524
vn 0.984215 0.083666 0.155953
vn 0.997321 0.046503 0.056459
vn -0.999792 -0.018382 0.008889
vn -0.999813 -0.018283 0.006353
vn -0.999816 -0.018265 0.005889
vn -0.999675 -0.025142 0.004129
vn -0.999723 -0.023141 0.004224
vn -0.999893 -0.014572 0.001232
vn -0.999899 -0.014176 0.001153
vn -0.999993 0.001243 0.003524
vn -0.9991 0.02838 0.031533
vn -0.984215 0.083666 0.155953
vn -0.997321 0.046503 0.056459
vn 0 -0.717514 0.696545
vn 0.975931 0.098087 0.194778
vn 0 0.9999 0.014141
vn -0.975931 0.098087 0.194778
vt 0.417467 0.519355
vt 0.518604 0.519355
vt 0.518604 0.535042
vt 0.417467 0.535042
vt 0.417467 0.553068
vt 0.518604 0.553068
vt 0.518604 0.569924
vt 0.417467 0.569924
vt 0.417467 0.58678
vt 0.518604 0.58678
vt 0.518604 0.620493
vt 0.417467 0.620493
vt 0.518604 0.72163
vt 0.417467 0.72163
vt 0.518604 0.755342
vt 0.417467 0.755342
vt 0.417467 0.772199
vt 0.518604 0.772199
vt 0.518604 0.789055
vt 0.417467 0.789055
vt 0.417467 0.80708
vt 0.518604 0.80708
vt 0.518604 0.822767
vt 0.417467 0.822767
vt 0.518604 0.923904
vt 0.417467 0.923904
vt 0.619741 0.519355
vt 0.619741 0.535042
vt 0.619741 0.553068
vt 0.619741 0.569924
vt 0.619741 0.58678
vt 0.619741 0.620493
vt 0.31633 0.519355
vt 0.31633 0.535042
vt 0.31633 0.553068
vt 0.31633 0.569924
vt 0.31633 0.58678
vt 0.31633 0.620493
usemtl initialShadingGroup
f 41/87/25 42/88/25 43/89/26
f 41/87/25 43/89/26 44/90/26
f 45/91/27 46/92/27 47/93/28
f 45/91/27 47/93/28 48/94/28
f 49/95/29 50/96/29 51/97/30
f 49/95/29 51/97/30 52/98/30
f 53/98/31 54/97/31 55/99/31
f 53/98/31 55/99/31 56/100/31
f 57/100/32 58/99/32 59/101/33
f 57/100/32 59/101/33 60/102/33
f 61/103/34 62/104/34 63/105/35
f 61/103/34 63/105/35 64/106/35
f 65/107/36 66/108/36 67/109/37
f 65/107/36 67/109/37 68/110/37
f 68/110/38 67/109/38 42/111/38
f 68/110/38 42/111/38 41/112/38
f 42/88/39 67/113/39 66/114/40
f 42/88/39 66/114/40 43/89/41
f 46/92/42 63/115/43 62/116/44
f 46/92/42 62/116/44 47/93/45
f 50/96/46 59/117/47 51/97/48
f 59/117/47 58/118/49 51/97/48
f 68/119/50 41/87/50 65/120/51
f 41/87/50 44/90/52 65/120/51
f 64/121/53 45/91/54 61/122/55
f 45/91/54 48/94/56 61/122/55
f 60/123/57 49/95/58 52/98/59
f 60/123/57 52/98/59 57/124/60
f 52/98/30 51/97/30 54/97/61
f 52/98/30 54/97/61 53/98/61
f 51/97/48 58/99/49 54/97/62
f 58/99/49 55/99/62 54/97/62
f 58/99/32 57/100/32 56/100/63
f 58/99/32 56/100/63 55/99/63
f 57/100/60 52/98/59 53/98/64
f 57/100/60 53/98/64 56/100/64
f 65/120/51 44/90/52 45/91/54
f 65/120/51 45/91/54 64/121/53
f 64/106/35 63/105/35 66/108/36
f 64/106/35 66/108/36 65/107/36
f 43/89/41 66/114/40 46/92/42
f 66/114/40 63/115/43 46/92/42
f 44/90/26 43/89/26 46/92/27
f 44/90/26 46/92/27 45/91/27
f 61/122/55 48/94/56 60/123/57
f 48/94/56 49/95/58 60/123/57
f 60/102/33 59/101/33 62/104/34
f 60/102/33 62/104/34 61/103/34
f 47/93/45 62/116/44 59/117/47
f 47/93/45 59/117/47 50/96/46
f 48/94/28 47/93/28 50/96/29
f 48/94/28 50/96/29 49/95/29
s off
g Cat_2_Bengal_initialShadingGroup_2
v -0.477596 0.027321 0.964815
v -0.143964 0.027321 0.964815
v -0.143964 0.934175 0.964815
v -0.477596 0.934175 0.964815
v -0.143964 0.934175 0.631182
v -0.477596 0.934175 0.631182
v -0.143964 0.027321 0.631182
v -0.477596 0.027321 0.631182
vn 0 0 1
vn 0 1 0
vn 0 0 -1
vn 0 -1 0
vn 1 0 0
vn -1 0 0
vt 0.529744 0.109925
vt 0.630881 0.109925
vt 0.630881 0.211062
vt 0.529744 0.211062
vt 0.630881 0.312199
vt 0.529744 0.312199
vt 0.630881 0.413337
vt 0.529744 0.413337
vt 0.630881 0.514474
vt 0.529744 0.514474
vt 0.732019 0.109925
vt 0.732019 0.211062
vt 0.428607 0.109925
vt 0.428607 0.211062
usemtl initialShadingGroup
f 69/125/65 70/126/65 71/127/65
f 69/125/65 71/127/65 72/128/65
f 72/128/66 71/127/66 73/129/66
f 72/128/66 73/129/66 74/130/66
f 74/130/67 73/129/67 75/131/67
f 74/130/67 75/131/67 76/132/67
f 76/132/68 75/131/68 70/133/68
f 76/132/68 70/133/68 69/134/68
f 70/126/69 75/135/69 73/136/69
f 70/126/69 73/136/69 71/127/69
f 76/137/70 69/125/70 72/128/70
f 76/137/70 72/128/70 74/138/70
s off
g Cat_2_Bengal_initialShadingGroup_3
v 0.144184 0.027321 0.964815
v 0.477816 0.027321 0.964815
v 0.477816 0.934175 0.964815
v 0.144184 0.934175 0.964815
v 0.477816 0.934175 0.631182
v 0.144184 0.934175 0.631182
v 0.477816 0.027321 0.631182
v 0.144184 0.027321 0.631182
vn 0 0 1
vn 0 1 0
vn 0 0 -1
vn 0 -1 0
vn 1 0 0
vn -1 0 0
vt 0.20618 0.408731
vt 0.105043 0.408454
vt 0.10532 0.307317
vt 0.206457 0.307594
vt 0.105597 0.20618
vt 0.206734 0.206457
vt 0.105873 0.105043
vt 0.20701 0.10532
vt 0.10615 0.003906
vt 0.207287 0.004183
vt 0.003906 0.408177
vt 0.004183 0.30704
vt 0.307317 0.409007
vt 0.307594 0.307871
usemtl initialShadingGroup
f 77/139/71 78/140/71 79/141/71
f 77/139/71 79/141/71 80/142/71
f 80/142/72 79/141/72 81/143/72
f 80/142/72 81/143/72 82/144/72
f 82/144/73 81/143/73 83/145/73
f 82/144/73 83/145/73 84/146/73
f 84/146/74 83/145/74 78/147/74
f 84/146/74 78/147/74 77/148/74
f 78/140/75 83/149/75 81/150/75
f 78/140/75 81/150/75 79/141/75
f 84/151/76 77/139/76 80/142/76
f 84/151/76 80/142/76 82/152/76
s off
g Cat_2_Bengal_initialShadingGroup_4
v -0.477596 0.027321 -0.631184
v -0.143964 0.027321 -0.631184
v -0.143964 0.934175 -0.631184
v -0.477596 0.934175 -0.631184
v -0.143964 0.934175 -0.964816
v -0.477596 0.934175 -0.964816
v -0.143964 0.027321 -0.964816
v -0.477596 0.027321 -0.964816
vn 0 0 1
vn 0 1 0
vn 0 0 -1
vn 0 -1 0
vn 1 0 0
vn -1 0 0
vt 0.105044 0.413889
vt 0.206181 0.413889
vt 0.206181 0.515026
vt 0.105044 0.515026
vt 0.206181 0.616163
vt 0.105044 0.616163
vt 0.206181 0.717301
vt 0.105044 0.717301
vt 0.206181 0.818438
vt 0.105044 0.818438
vt 0.307318 0.413889
vt 0.307318 0.515026
vt 0.003906 0.413889
vt 0.003906 0.515026
usemtl initialShadingGroup
f 85/153/77 86/154/77 87/155/77
f 85/153/77 87/155/77 88/156/77
f 88/156/78 87/155/78 89/157/78
f 88/156/78 89/157/78 90/158/78
f 90/158/79 89/157/79 91/159/79
f 90/158/79 91/159/79 92/160/79
f 92/160/80 91/159/80 86/161/80
f 92/160/80 86/161/80 85/162/80
f 86/154/81 91/163/81 89/164/81
f 86/154/81 89/164/81 87/155/81
f 92/165/82 85/153/82 88/156/82
f 92/165/82 88/156/82 90/166/82
s off
g Cat_2_Bengal_initialShadingGroup_5
v 0.144184 0.027321 -0.631184
v 0.477816 0.027321 -0.631184
v 0.477816 0.934175 -0.631184
v 0.144184 0.934175 -0.631184
v 0.477816 0.934175 -0.964816
v 0.144184 0.934175 -0.964816
v 0.477816 0.027321 -0.964816
v 0.144184 0.027321 -0.964816
vn 0 0 1
vn 0 1 0
vn 0 0 -1
vn 0 -1 0
vn 1 0 0
vn -1 0 0
vt 0.72989 0.519355
vt 0.831027 0.519355
vt 0.831027 0.620493
vt 0.72989 0.620493
vt 0.831027 0.72163
vt 0.72989 0.72163
vt 0.831027 0.822767
vt 0.72989 0.822767
vt 0.831027 0.923904
vt 0.72989 0.923904
vt 0.932165 0.519355
vt 0.932165 0.620493
vt 0.628753 0.519355
vt 0.628753 0.620493
usemtl initialShadingGroup
f 93/167/83 94/168/83 95/169/83
f 93/167/83 95/169/83 96/170/83
f 96/170/84 95/169/84 97/171/84
f 96/170/84 97/171/84 98/172/84
f 98/172/85 97/171/85 99/173/85
f 98/172/85 99/173/85 100/174/85
f 100/174/86 99/173/86 94/175/86
f 100/174/86 94/175/86 93/176/86
f 94/168/87 99/177/87 97/178/87
f 94/168/87 97/178/87 95/169/87
f 100/179/88 93/167/88 96/170/88
f 100/179/88 96/170/88 98/180/88
s off
